<?xml version="1.0" encoding="UTF-8" standalone="no"?>
<svg width="102px" height="102px" viewBox="0 0 102 102" version="1.1" xmlns="http://www.w3.org/2000/svg" xmlns:xlink="http://www.w3.org/1999/xlink">
    <!-- Generator: Sketch Beta 3.7 (28138) - http://www.bohemiancoding.com/sketch -->
    <title>logo</title>
    <desc>Created with Sketch Beta.</desc>
    <defs>
        <path d="M43.9758347,86.9848697 C31.8859823,86.9848697 21.6443481,82.8579492 13.5357061,74.7206764 C5.4260415,66.5808473 1.31394767,56.3535285 1.31394767,44.3214489 C1.31394767,32.2290402 5.4260415,21.9858723 13.5377511,13.8762077 C21.6540621,5.76756564 31.8946738,1.65649434 43.9758347,1.65649434 C56.0590406,1.65649434 66.3006748,5.76756564 74.417497,13.8756964 C82.5276729,21.9884286 86.6392554,32.2315965 86.6392554,44.3214489 C86.6392554,56.4118126 82.5276729,66.6544692 74.4180083,74.7646451 C66.308855,82.8732871 56.0667096,86.9848697 43.9758347,86.9848697" id="path-1"></path>
        <filter x="-50%" y="-50%" width="200%" height="200%" filterUnits="objectBoundingBox" id="filter-2">
            <feMorphology radius="1" operator="dilate" in="SourceAlpha" result="shadowSpreadOuter1"></feMorphology>
            <feOffset dx="0" dy="0" in="shadowSpreadOuter1" result="shadowOffsetOuter1"></feOffset>
            <feGaussianBlur stdDeviation="3" in="shadowOffsetOuter1" result="shadowBlurOuter1"></feGaussianBlur>
            <feColorMatrix values="0 0 0 0 0   0 0 0 0 0   0 0 0 0 0  0 0 0 0.3 0" type="matrix" in="shadowBlurOuter1"></feColorMatrix>
        </filter>
    </defs>
    <g id="Home-Screen" stroke="none" stroke-width="1" fill="none" fill-rule="evenodd">
        <g id="1.-Loading-Screen" transform="translate(-309.000000, -589.000000)">
            <g id="konga-smiley" transform="translate(316.000000, 596.000000)">
                <g id="logo">
                    <g id="Fill-1">
                        <use fill="black" fill-opacity="1" filter="url(#filter-2)" xlink:href="#path-1"></use>
                        <use fill="#E38B23" fill-rule="evenodd" xlink:href="#path-1"></use>
                    </g>
                    <path d="M43.9758347,88.1812267 C31.5567285,88.1812267 21.0298092,83.9367156 12.6880309,75.5647727 C4.34676386,67.1928299 0.117590648,56.6807373 0.117590648,44.3214489 C0.117590648,31.8997864 4.34778638,21.3723559 12.6916097,13.0300663 C21.041057,4.68931053 31.5664425,0.460137317 43.9758347,0.460137317 C56.3872719,0.460137317 66.9136799,4.68879926 75.2626159,13.0290438 C83.605928,21.3749122 87.8356125,31.9023427 87.8356125,44.3214489 C87.8356125,56.7410664 83.605928,67.2679857 75.2641497,75.6107865 C66.9223714,83.9515422 56.3954521,88.1812267 43.9758347,88.1812267 L43.9758347,88.1812267 Z M43.9758347,2.85285137 C32.2234163,2.85285137 22.2670673,6.84633202 14.38287,14.7228604 C6.50480787,22.5993887 2.50979343,32.5588053 2.50979343,44.3214489 C2.50979343,56.0247859 6.50480787,65.9688646 14.38287,73.8760688 C22.2593983,81.7802054 32.2157474,85.7885127 43.9758347,85.7885127 C55.737967,85.7885127 65.6953386,81.795032 73.5718669,73.9190149 C81.4494178,66.0409528 85.4434097,56.08307 85.4434097,44.3214489 C85.4434097,32.5598278 81.4494178,22.6014338 73.5713556,14.7213266 C65.6876696,6.84633202 55.7297868,2.85285137 43.9758347,2.85285137 L43.9758347,2.85285137 Z" id="Fill-2" fill="#35608F"></path>
                    <path d="M22.6167717,30.3854234 C24.1817498,29.0735208 25.8924381,28.4881238 28.0238964,28.4431326 C30.109341,28.3812697 32.2668737,28.8081749 34.36919,29.6338658 C36.4817316,30.4462637 38.5676874,31.6707403 40.5667284,33.0511522 L41.5166563,32.2975496 C40.2604815,29.88643 38.3396638,27.9558983 36.013414,26.4481817 C33.678984,24.9721635 30.8506733,24.0805196 27.9221549,24.1163081 C26.5161798,24.1050603 24.918992,24.3826764 23.5043254,25.0166434 C22.0743209,25.6434527 20.8094545,26.6409281 19.8748645,27.8183684 C18.9203352,28.9830271 18.3134652,30.3230492 17.9208147,31.6600037 C17.5619076,33.0102511 17.3809203,34.3482282 17.5450359,35.7536921 L18.7511069,35.8963346 C19.7961299,33.7071035 21.0722441,31.6927246 22.6167717,30.3854234" id="Fill-13" fill="#35608F"></path>
                    <path d="M49.3752904,26.5345853 C51.2327114,25.2533585 53.2363538,24.339219 55.2814085,23.9230504 C57.3709432,23.4797848 59.1665013,23.6607721 60.9891563,24.5800242 C62.7903383,25.4962087 64.4938689,27.1690635 66.0077207,29.0597166 L67.150395,28.6445705 C66.9919033,27.2457531 66.5123379,25.9844656 65.851274,24.7431173 C65.1651581,23.5339787 64.2668678,22.3703426 63.0715333,21.4500679 C61.8925593,20.5185455 60.4329014,19.8400986 58.8991104,19.5527684 C57.3775897,19.2644157 55.7584176,19.3589995 54.3933435,19.6872307 C51.5338457,20.3263104 48.9841737,21.836072 47.0464844,23.8069935 C45.1292455,25.802967 43.697196,28.1241041 43.0238617,30.7606909 L44.1230786,31.2775785 C45.7555436,29.4738402 47.5025316,27.8076319 49.3752904,26.5345853" id="Fill-14" fill="#35608F"></path>
                    <path d="M68.3130086,54.186793 C67.4556194,56.2722376 66.1851292,58.2017467 64.6988856,59.8229639 C63.9641997,60.6496772 63.1635608,61.4027687 62.3056603,62.078148 C61.4625865,62.7734666 60.575544,63.4023209 59.6378864,63.9601096 C55.8903236,66.1922869 51.629452,67.4822051 47.1937283,68.1851927 C42.8321378,68.8784663 38.3539792,68.8334751 34.0363573,67.8569614 C31.8813809,67.3477428 29.7540127,66.6375975 27.7222508,65.6580163 C25.6863988,64.6942843 23.7042295,63.4836119 21.9383248,62.0408257 L21.2803284,62.5802089 C22.6336434,64.6687211 24.4491407,66.3390195 26.4415353,67.8058351 C28.4538692,69.2383959 30.681445,70.4148136 33.0485959,71.2231215 C37.7813638,72.9169381 42.9395032,73.2047796 47.8752428,72.4598684 C52.7169099,71.7328514 57.6618523,70.0824922 61.7054368,66.9576486 C65.7295932,63.9100058 68.8053556,59.3341958 69.1458572,54.3192103 L68.3130086,54.186793" id="Fill-15" fill="#35608F"></path>
                    <polyline id="Fill-16" fill="#35608F" points="43.1521889 40.9108089 44.7483541 55.586633 45.5914279 55.4910267 43.9957739 40.8213377 43.1521889 40.9108089"></polyline>
                </g>
            </g>
            <g id="Statusbar">
                <rect id="Background" fill-opacity="0.2" fill="#000000" fill-rule="evenodd" x="0" y="0" width="720" height="48"></rect>
                <g id="Battery" stroke-width="1" fill-rule="evenodd" transform="translate(603.000000, 10.000000)">
                    <path d="M12.2352941,1 L14.9998938,1 C16.1099416,1 17,1.89408944 17,2.99700466 L17,25.0029953 C17,26.1050211 16.104522,27 14.9998938,27 L2.00010618,27 C0.890058413,27 0,26.1059106 0,25.0029953 L0,2.99700466 C0,1.89497885 0.895478039,1 2.00010618,1 L4.70588235,1 C4.70588235,0.443864822 5.15352944,0 5.7057301,0 L11.2354464,0 C11.7868437,0 12.2352941,0.44771525 12.2352941,1 Z" id="Rectangle-2" fill="#D8D8D8" opacity="0.356984608"></path>
                    <rect id="Rectangle-7" fill-opacity="0.9" fill="#FFFFFF" opacity="0.9" x="0" y="14" width="17" height="13" rx="2"></rect>
                </g>
                <text id="12:00" font-family="Roboto-Regular, Roboto" font-size="26" font-weight="normal" fill="#FFFFFF">
                    <tspan x="637" y="36">12:00</tspan>
                </text>
                <g id="Signal-" stroke-width="1" fill-rule="evenodd" transform="translate(554.000000, 12.000000)">
                    <polygon id="Rectangle-8" fill-opacity="0.3" fill="#D8D8D8" points="0 24 24 24 24 0"></polygon>
                    <polygon id="Rectangle-9" fill="#FFFFFF" points="0 24 12 24 12 12"></polygon>
                </g>
                <g id="wifi" stroke-width="1" fill-rule="evenodd" transform="translate(508.000000, 12.000000)" fill="#FFFFFF">
                    <path d="M14,0.106086731 L28,20.1060867 C28,20.1060867 23.7199039,24 14,24 C4.28009605,24 0,20.1060867 0,20.1060867 L14,0.106086731 Z" id="Triangle-1" fill-opacity="0.3" transform="translate(14.000000, 12.053043) scale(1, -1) translate(-14.000000, -12.053043) "></path>
                    <path d="M14,7.07514477 L24,21.2418114 C24,21.2418114 20.9427885,24 14,24 C7.05721147,24 4,21.2418114 4,21.2418114 L14,7.07514477 Z" id="Triangle-2" transform="translate(14.000000, 15.537572) scale(1, -1) translate(-14.000000, -15.537572) "></path>
                </g>
            </g>
        </g>
    </g>
</svg>